<svg width="1002" height="307" viewBox="0 0 1002 307" fill="none" xmlns="http://www.w3.org/2000/svg">
<g clip-path="url(#clip0_19_87)">
<path d="M0 0H1002V307H0V0Z" fill="#D8D0DC"/>
<path d="M825.285 8.30566C828.637 8.93401 833.989 9.19459 837.541 9.45591C837.551 16.0101 837.859 27.4009 837.218 33.5756C851.455 22.7411 863.08 16.3327 881.026 12.9641C903.654 8.70114 934.664 13.0728 953.446 26.8485C1018.52 74.5839 1002.2 206.116 914.878 218.58C883.629 223.04 862.547 218.1 837.517 200.561L837.531 233.501C837.468 264.118 836.357 276.753 871.74 279.781L871.711 296.894C833.172 297.616 792.549 297.148 753.902 297.042L753.922 279.672C772.734 277.034 780.053 271.579 780.772 250.956C781.232 237.812 780.919 224.477 780.909 211.318L780.895 141.395L780.89 97.3303C780.885 88.4464 781.174 79.748 780.366 70.8822C778.703 52.5729 766.985 53.9806 752.85 53.4954L752.709 43.2918C738.403 55.3212 725.804 95.4045 718.006 114.232L692.686 176.24C687.456 189.228 681.614 203.069 677.172 216.247C665.376 216.3 653.58 216.29 641.784 216.218C635.776 202.753 632.327 190.524 627.116 177.426C615.638 148.594 604.972 119.252 593.401 90.5072C590.417 97.8091 587.496 106.001 584.663 113.434C583.846 115.226 582.3 120.248 581.542 122.356C579.433 128.128 577.275 133.881 575.069 139.615L558.434 182.472C554.114 193.769 550.146 205.064 545.488 216.242L511.015 216.245C507.522 209.013 504.136 199.942 501.083 192.38C495.222 178.237 489.615 163.99 484.264 149.647C478.087 133.452 471.1 116.859 464.542 100.631C457.199 82.464 450.576 60.8732 438.888 45.2197C432.939 37.2538 424.587 35.5297 415.341 34.4311L415.363 16.4049C420.134 16.2144 425.405 16.2694 430.188 16.3303C462.551 16.7423 495.227 15.6688 527.557 16.4182L527.493 34.2025C513.153 35.1868 504.293 39.3646 508.349 55.4916C511.138 66.571 516.182 78.4417 520.174 89.1715L544.065 152.536L565.416 95.9074C567.26 91.0116 569.623 85.534 571.13 80.6685C575.118 67.7912 584.541 55.401 573.112 43.3905C566.482 36.4225 560.435 35.0891 551.35 34.5898L551.399 16.3337C555.924 16.2137 560.866 16.2019 565.401 16.2986C597.149 16.975 629.631 15.3395 661.305 16.4584L661.301 34.2056C627.219 34.6798 642.391 62.2485 649.72 81.9582L666.731 127.081C669.809 135.217 673.992 145.376 676.335 153.477C679.941 143.808 682.936 134.582 686.815 124.672L702.618 84.1307C706.968 72.6454 717.482 51.6803 709.047 40.5361C705.167 35.417 694.903 34.7612 688.934 34.3602V16.4518C698.122 15.9735 710.324 16.3394 719.737 16.3328L774.109 16.3715L774.094 29.3568C788.292 24.6506 812.476 14.9389 825.285 8.30566Z" fill="#FEFEFE"/>
<path d="M880.958 38.3939C937.115 34.1012 936.826 122.63 926.136 157.955C920.098 177.893 909.589 191.416 888.199 194.732C888.066 194.748 887.939 194.764 887.807 194.78C873.917 196.038 860.12 191.578 849.591 182.427C835.094 169.919 837.507 162.049 837.551 144.767L837.609 111.665L837.502 83.8315C837.458 71.4438 835.828 66.3222 844.718 56.5487C854.684 45.5984 866.118 39.3734 880.958 38.3939Z" fill="#D8D0DC"/>
<path d="M320.852 11.0167C345.96 10.2613 378.566 13.8085 396.721 33.0942C414.87 52.3735 412.524 77.5363 412.507 101.957L412.445 154.607C412.444 157.264 412.626 160.739 412.445 163.313C411.108 182.358 418.083 197.858 440.037 186.73C440.871 192.73 442.465 200.614 443.847 206.418C435.965 211.739 427.153 215.529 417.87 217.589C403.392 220.853 383.412 220.602 370.579 212.281C362.63 207.127 360.053 200.439 358.113 191.711C353.226 197.177 347.761 202.096 341.814 206.381C324.367 218.952 292.13 222.981 271.394 219.123C253.425 215.781 240.833 210.181 230.083 195.206C218.571 176.634 219.16 151.4 232.629 133.992C243.594 119.82 258.221 113.85 274.639 108.12C300.91 98.9514 330.313 94.789 355.661 83.715C355.929 54.9338 352.827 30.5111 316.01 31.6412C302.009 32.071 290.104 38.3283 285.771 52.4088C283.739 59.0105 282.746 66.6302 277.846 71.8462C268.728 81.8294 249.318 81.6565 239.724 72.3971C236.047 69.0632 233.522 63.8638 233.607 58.7167C234.261 19.0934 294.077 12.0676 320.852 11.0167Z" fill="#FEFEFE"/>
<path d="M354.805 106.251L355.321 106.34C355.363 106.4 356.448 154.115 355.701 158.513C350.71 187.903 310.751 203.491 288.977 184.886C279.007 175.779 277.651 158.971 283.065 147.143C292.145 127.282 314.837 120.396 333.896 114.02C340.87 111.687 347.936 108.887 354.805 106.251Z" fill="#D8D0DC"/>
<path d="M150.207 16.421C159.579 16.0695 170.56 16.3277 180.03 16.3241L235.421 16.3243L235.459 34.3515C208.179 37.5841 201.555 56.7206 192.071 78.9719C189.278 85.5237 186.462 92.1847 183.677 98.7472L156.087 162.827C152.058 171.664 149.058 179.845 145.333 188.757C138.15 205.77 130.777 222.701 123.214 239.548C113.074 261.609 98.4689 287.992 73.8504 296.712C55.6324 303.164 24.0446 303.456 13.9846 282.994C10.7098 276.334 10.6294 266.006 13.9574 259.169C16.6568 253.676 21.4345 249.488 27.2307 247.534C33.7316 245.313 41.9196 245.828 47.9152 249.27C52.7757 252.06 56.747 256.982 61.7898 259.407C66.1593 261.464 71.1693 261.688 75.7052 260.03C91.2842 254.41 101.192 227.081 107.997 212.725L63.5344 110.727C54.2772 89.5431 45.8707 63.0368 31.7707 45.1181C25.6461 37.3349 16.0983 35.3631 6.71635 34.6522C6.65422 28.5589 6.63186 22.4652 6.64927 16.3716C11.485 16.2147 16.8614 16.1818 21.7087 16.3049C54.5424 17.1385 88.4524 15.1301 121.18 16.5128L121.034 34.2411C91.8189 34.9518 99.8271 54.4766 108.154 73.8641C118.111 97.0482 127.605 120.861 138.091 143.781C142.642 133.72 147.262 121.931 151.257 111.144C157.945 93.0885 169.318 71.6798 172.846 52.9014C175.637 38.0548 162.004 35.3858 150.182 34.4341L150.207 16.421Z" fill="#FEFEFE"/>
</g>
<defs>
<clipPath id="clip0_19_87">
<rect width="1002" height="307" fill="white"/>
</clipPath>
</defs>
</svg>
