<svg width="1552" height="688" viewBox="0 0 1552 688" fill="none" xmlns="http://www.w3.org/2000/svg">
<path fill-rule="evenodd" clip-rule="evenodd" d="M1265.39 147.822C1303.37 142.943 1344.53 160.105 1367.25 190.686C1394.73 227.675 1402.42 273.418 1397.32 318.197C1389.3 388.622 1338.93 446.821 1263.67 437.633C1237.42 434.452 1219.92 421.98 1203.88 401.293C1204.37 422.943 1204.02 445.928 1204.04 467.682L1204.02 537.832L1137.21 537.761L1137.13 153.859L1200.89 153.812L1200.96 188.373C1202.51 186.081 1204.12 183.834 1205.79 181.633C1221.33 161.097 1240.24 151.336 1265.39 147.822ZM1291.16 367.41C1354.39 339.931 1340.37 205.587 1263.51 213.025C1216.14 216.828 1199.43 261.576 1202.77 303.483C1205.98 343.648 1228.49 374.101 1270.94 372.469C1278.98 371.447 1283.72 370.645 1291.16 367.41Z" fill="black"/>
<path fill-rule="evenodd" clip-rule="evenodd" d="M550.765 147.112C587.592 147.006 609.278 157.199 630.536 187.347C631.195 176.309 631.123 164.956 631.188 153.875C652.341 153.544 674.312 153.85 695.532 153.85L695.682 432.308L629.653 432.33L629.61 395.719C625.622 401.531 622.752 405.486 618.201 410.983C602.188 428.742 582.844 437.009 559.377 438.345C481.492 442.776 434.706 377.683 431.21 305.497C429.096 261.836 438.302 217.776 468.535 184.122C490.625 159.532 518.383 148.789 550.765 147.112ZM590.659 367.027C653.658 337.121 639.704 206.743 560.27 213.02C490.883 219.15 480.868 318.923 525.706 359.074C537.608 369.732 553.458 373.092 569.207 372.419C577.233 371.506 583.287 370.526 590.659 367.027Z" fill="black"/>
<path d="M1049.08 153.857L1120.49 153.884C1113.87 173.596 1107.62 195.712 1101.51 215.756C1086.4 264.206 1072.85 313.615 1057.99 362.182C1052.64 379.64 1048.23 402.044 1039 417.586C1021.73 446.697 976.31 445.643 960.547 415.455C950.825 397.161 948.688 376.059 942.807 356.382C934.039 320.565 924.021 284.421 916.041 248.504C906.326 292.605 893.58 336.612 883.213 380.612C877.605 404.395 869.822 433.264 841.533 437.945C792.768 446.017 785.326 399.557 774.952 364.16L752.586 288.373C742.454 255.462 732.516 222.491 722.771 189.464C720.076 180.177 713.842 162.64 712.367 153.946C735.998 153.817 759.629 153.808 783.257 153.92C790.04 175.129 797.497 206.707 803.127 228.683C813.85 269.579 824.209 310.569 834.205 351.649C848.482 286.087 869.489 219.032 884.819 153.871L947.43 153.81C965.246 219.701 982.335 285.786 998.688 352.054C1014.61 285.768 1031.41 219.697 1049.08 153.857Z" fill="black"/>
<path d="M154 153.898L229.092 153.745C248.488 205.397 267.895 257.253 286.858 309.06C291.925 322.901 296.332 338.594 301.084 352.78C316.485 288.979 342.166 217.114 363.078 153.869C387.618 153.583 412.622 153.834 437.198 153.836C428.98 178.038 419.402 203.249 410.66 227.433L366.005 352.542C354.982 381.688 345.286 411.638 334.656 440.941C322.424 474.662 312.863 513.254 278.577 531.668C254.11 544.808 219.973 543.494 193.945 535.686C195.273 514.738 196.798 493.804 198.518 472.885C211.588 477.361 229.292 480.742 242.39 474.552C257.187 467.561 262.593 447.223 267.58 432.663C241.718 366.496 212.501 298.786 185.417 232.853C177.839 214.731 170.391 196.554 163.075 178.324C160.714 172.399 155.311 159.748 154 153.898Z" fill="black"/>
</svg>
