<svg width="362" height="164" viewBox="0 0 362 164" fill="none" xmlns="http://www.w3.org/2000/svg">
<g clip-path="url(#clip0_19_56)">
<path d="M0 0H361.953V164H0V0Z" fill="#1E1E1E"/>
<path d="M271.873 35.5333L272.435 35.4829C272.886 36.0323 272.707 47.1257 272.696 48.8413C276.21 43.93 282.316 38.26 288.201 36.7901C329.98 26.3556 337.659 92.5266 302.321 103.833C292.936 106.836 281.644 104.47 274.372 97.8381C273.909 97.4161 273.303 96.6491 272.804 96.3833L272.643 96.5551L272.677 97.1542C272.923 103.774 272.582 110.557 272.711 117.191C272.719 120.255 272.658 123.593 272.942 126.601C273.515 132.698 276.95 132.957 282.026 133.499C282.42 133.541 282.519 133.826 282.67 134.127C282.609 134.791 282.714 134.613 282.341 135.104C280.11 135.404 273.105 135.329 270.623 135.35C267.333 135.381 264.043 135.389 260.753 135.375C258.911 135.366 256.476 135.423 254.687 135.192C254.323 134.913 254.388 134.8 254.231 134.28C254.73 133.044 258.296 133.427 259.994 132.183C263.441 129.66 262.896 125.022 262.934 121.021L263.017 110.543C263.319 90.5456 262.949 70.2999 262.776 50.2855C262.769 49.343 262.554 47.3434 262.036 46.5785L261.972 46.4865C260.184 43.8755 256.872 43.9172 253.996 43.435C256.272 42.0526 259.756 40.8896 262.273 39.7436C265.447 38.2988 268.554 36.4867 271.873 35.5333Z" fill="#FEFEFE"/>
<path d="M290.506 41.4131C294.622 40.9094 300.025 42.2453 303.424 44.656C309.219 48.7627 312.128 55.8173 313.335 62.5965C315.772 76.2836 312.745 98.237 296.22 101.207C296.117 101.222 296.015 101.236 295.912 101.25C285.367 102.604 275.192 96.961 273.147 85.9619C272.622 83.1398 272.735 79.623 272.728 76.7295L272.748 64.6458C272.75 61.3264 272.596 57.3195 272.861 54.0234C272.974 52.636 274.496 50.2809 275.369 49.1847C279.294 44.2559 284.409 42.1504 290.506 41.4131Z" fill="#1E1E1E"/>
<path d="M123.724 35.5996C135.338 35.3794 145.991 40.138 147.422 52.9219C147.924 57.4123 147.722 62.0018 147.713 66.5189L147.789 85.2926C147.812 88.6988 147.617 92.8115 148.668 96.0376C149.342 98.1046 150.653 98.6254 152.468 99.4765C154.334 98.9914 156.482 97.8909 158.288 97.0842C158.78 97.3528 158.629 97.1844 158.841 97.7324C158.704 98.7491 157.67 99.8876 156.981 100.664C153.291 104.817 145.747 106.309 141.42 102.286C138.39 99.4703 138.219 95.5375 138.131 91.5886C135.77 94.9145 131.971 99.4797 128.544 101.513C122.671 104.997 116.135 105.941 109.536 104.261C104.231 102.911 101.22 101.008 98.3394 96.3404C96.4248 92.4565 96.138 87.5611 97.1876 83.443C99.8757 72.8949 116.545 68.7325 125.759 65.9618C129.828 64.7385 134.266 63.8394 137.912 61.6642C137.432 55.0175 138.704 47.1061 133.271 41.9031C126.889 35.7915 111.873 37.391 109.832 47.1586C109.429 49.0845 109.656 52.5499 109.712 54.5721C108.589 55.8447 106.533 57.1615 104.886 57.0961C96.252 56.7531 99.2406 47.5065 102.898 43.7043C108.549 37.8305 116.042 35.9341 123.724 35.5996Z" fill="#FEFEFE"/>
<path d="M137.812 64.125C138.006 64.6444 138.038 66.3052 138.027 66.9164C137.893 74.0343 138.347 81.2968 137.693 88.3756C137.004 90.4263 135.213 92.2227 133.705 93.657C127.643 99.4244 117.252 102.322 110.388 96.2764C107.29 93.1244 106.216 87.6968 107.257 83.4781C110.555 70.1124 127.817 70.1244 137.812 64.125Z" fill="#1E1E1E"/>
<path d="M186.604 91.1376C187.459 88.7426 188.583 86.3763 189.448 84.0031C192.627 75.2685 196.308 66.7396 199.392 57.966C199.779 56.8662 201.524 52.3636 201.54 51.4547C200.382 50.2451 199.585 44.8424 197.012 41.9076C194.158 38.6535 191.724 39.6676 190.656 38.5737C190.605 38.094 190.504 37.6987 190.697 37.2742C191.846 36.9351 215.157 36.8338 216.241 37.156C216.645 37.6955 216.569 37.4546 216.591 38.0661C215.21 40.2202 207.323 38.4321 210.449 48.0125C211.755 52.0194 213.761 56.5746 215.175 60.524C217.707 67.7432 220.367 74.9165 223.156 82.0404C223.605 83.2096 226.09 90.2902 226.666 90.5928C227.363 89.3297 227.902 87.3927 228.471 86.0098C231.998 77.4346 234.895 68.5609 238.018 59.8387C239.895 54.6013 242.533 49.4973 243.058 43.8632C240.973 38.0055 235.856 40.5065 234.752 38.2458C234.914 37.2062 236.18 37.1675 236.957 37.1839C242.549 37.1779 248.268 36.7953 253.882 37.0867C254.7 37.1293 255.562 37.2152 256.094 37.8334C255.835 38.7744 253.392 39.3431 252.388 39.9152C249.748 41.4182 247.45 44.2573 246.353 47.0564C240.236 62.6575 234.49 78.4094 228.462 94.0444C227.707 96.0009 225.337 103.194 224.217 104.471C223.412 104.86 221.986 104.706 221.603 103.807C217.656 94.5358 214.53 84.9415 210.726 75.6085C208.832 70.9584 207.084 66.2667 205.32 61.5678C204.601 59.6491 203.91 57.63 202.959 55.8152C202.347 58.7278 201.001 61.2779 199.96 64.0928L191.977 85.153C190.702 88.4924 189.472 91.9157 188.21 95.2671C186.98 98.5321 186.376 101.168 184.628 104.318C182.885 104.876 182.383 105.176 181.586 103.307C180.563 100.912 179.713 98.4835 178.82 96.0405C177.833 93.4025 176.823 90.7721 175.793 88.1499L164.786 59.858C162.704 54.4539 160.755 48.5169 157.98 43.4437C156.494 40.726 153.454 39.818 150.668 39.103C150.617 38.5447 150.621 37.7622 150.605 37.1841L155.728 37.0242C162.244 36.8517 169.293 36.9823 175.823 37.1922C176.39 37.2104 176.526 37.4797 176.792 37.8917C176.838 39.8784 172.242 38.8352 170.652 41.4483C169.811 42.8295 169.703 44.4213 170.138 46.032C171.421 50.7931 173.685 55.764 175.428 60.3957C178.232 67.8507 180.825 75.2655 183.622 82.7194C184.518 85.1097 186.203 88.8273 186.604 91.1376Z" fill="#FEFEFE"/>
<path d="M76.7277 36.9589C80.7938 36.9437 84.8598 36.9494 88.9258 36.9759C90.7845 36.9699 97.6816 36.6375 98.9148 37.4472C98.9611 37.8457 98.9685 38.2764 98.5866 38.4947C95.829 40.0709 92.5971 40.9156 90.7304 43.8296C87.535 48.8178 85.2431 54.9756 83.0117 60.4896L74.5616 81.3971C69.3814 93.3875 65.4402 105.91 59.7958 117.715C56.0642 125.383 53.1767 132.186 44.8071 135.95C39.1503 138.494 29.97 136.839 32.1044 128.361C32.4786 126.875 34.5686 125.718 36.0362 125.159C40.3526 125.773 42.9072 129.004 47.0467 127.673C53.7753 125.509 57.0866 116.934 59.422 110.844C60.2754 108.619 60.953 105.815 62.0184 103.794C61.6149 102.98 61.2701 102.166 60.95 101.315C59.5293 97.5395 57.8469 93.8942 56.2526 90.1897L44.6761 63.366C41.9374 56.851 38.7576 48.4165 34.8272 42.4683C32.8011 39.4022 28.0349 39.4129 27.4589 38.7824C27.3762 38.0214 27.281 38.1423 27.5538 37.5204C28.481 36.8554 31.8395 37.053 33.2578 37.0265C40.2991 36.8296 48.1682 36.9754 55.3051 36.9478L55.4225 39.1957C52.8416 39.4361 49.2705 39.5508 48.3002 42.4932C47.9671 43.6176 48.0763 45.3427 48.4625 46.4656C51.3459 54.4462 54.7161 62.3881 58.1456 70.1592C61.2429 77.1773 63.8531 84.6508 67.3447 91.4361C69.3616 86.8968 70.9064 82.5709 72.6647 77.9886L77.708 65.2062C80.1169 59.0691 83.1032 53.2556 84.501 46.7526C85.8299 40.5696 81.6195 39.9528 76.8272 39.1348C76.7592 38.4689 76.7523 37.64 76.7277 36.9589Z" fill="#FEFEFE"/>
</g>
<defs>
<clipPath id="clip0_19_56">
<rect width="361.953" height="164" fill="white"/>
</clipPath>
</defs>
</svg>
