<svg width="1449" height="443" viewBox="0 0 1449 443" fill="none" xmlns="http://www.w3.org/2000/svg">
<path fill-rule="evenodd" clip-rule="evenodd" d="M1215.26 15.8483C1226.97 14.867 1240.32 18.8699 1247.13 28.8649C1262.61 51.5799 1245.45 91.2813 1238.8 116.002C1251.19 97.0497 1260.7 80.1518 1275.84 62.5416C1297.24 37.1266 1325.35 14.6585 1360.36 15.8473C1403.78 17.3211 1423.18 55.0016 1426.02 93.6764C1433.42 194.227 1346.28 330.673 1232.7 308.023C1217.51 304.994 1204.86 297.743 1193.23 287.816L1170.96 373.511C1165.77 393.784 1167.34 404.663 1191.65 406.138C1200.14 406.653 1208.81 406.647 1217.32 406.838C1214.95 414.538 1212.94 422.596 1210.88 430.408L1052.63 430.555C1054.9 422.67 1057.11 414.768 1059.26 406.85C1069.32 406.922 1079.81 406.842 1089.71 404.895C1097.09 403.444 1103.74 400.71 1108.03 394.259C1115.58 382.889 1126.15 338.49 1130.68 322.382L1158.8 222.489L1183.59 135.946C1188.7 118.303 1193.86 100.687 1198.68 82.9225C1200.45 77.4126 1204.78 58.6542 1193.81 60.2887C1175.38 63.0328 1158.11 96.805 1150.12 110.835C1142.21 108.108 1134.04 105.424 1126.36 102.152C1143.59 66.6591 1171.79 20.129 1215.26 15.8483ZM1337.53 60.0748C1334.39 59.7076 1329.75 59.9962 1326.49 60.3424C1294.9 68.0449 1267.56 109.43 1251.6 135.672C1236.15 161.076 1203.48 221.377 1210.66 250.409C1213.29 260.963 1220.05 270.014 1229.44 275.52C1235.1 278.891 1241.46 280.791 1247.98 281.568C1266.76 283.881 1283.96 278.738 1298.7 266.77C1337.63 235.172 1357.5 182.643 1363.73 134.13C1366.52 112.44 1367.9 63.6243 1337.53 60.0748Z" fill="#F1F1F0"/>
<path fill-rule="evenodd" clip-rule="evenodd" d="M619.072 161.937L602.755 216.785C600.578 224.215 580.728 276.182 605.536 266.266C620.094 260.446 635.546 235.645 641.918 221.373C649.603 223.754 659.131 227.56 666.826 230.385C664.417 235.876 661.713 241.232 658.725 246.43C641.411 276.832 601.493 327.186 558.685 305.516C550.375 301.309 545.423 292.445 543.052 283.574C537.767 260.143 550.505 228.689 556.432 205.057C551.427 211.6 546.848 220.222 542.164 227.399C519.108 262.796 487.085 308.013 440.709 310.626C396.87 312.871 375.338 273.411 374.245 235.071C371.505 138.95 443.799 20.0633 547.991 15.8848C572.571 15.959 593.727 21.1609 612.015 38.5664C614.438 31.481 616.801 24.3751 619.104 17.25C633.749 16.8789 648.387 16.2878 663.013 15.4775L619.072 161.937ZM581.401 61.4443C571.92 44.9652 555.105 42.649 537.516 43.3779C472.867 53.042 439.089 144.214 433.391 200.742C430.386 230.555 436.673 277.151 478.94 258.52C522.842 234.637 565.014 153.347 582.154 106.179C586.619 93.8908 588.133 73.1459 581.401 61.4443Z" fill="#F1F1F0"/>
<path d="M1060.25 15.7699C1060.46 15.7524 1060.66 15.7376 1060.88 15.7256C1089.57 14.0383 1105.12 36.247 1105.19 63.0287C1105.35 135.29 1065.47 212.034 1019.85 266.198C1001.14 288.399 971.983 309.377 942.38 310.612C895.344 312.251 878.909 277.702 876.984 237.091C857.556 267.772 827.974 305.254 789.832 309.929C720.87 318.383 712.097 249.069 728.115 199.839C745.372 146.821 777.026 112.233 809.176 69.7646C768.883 79.9771 751.555 55.1936 728.667 59.3331C726.205 59.7777 724.988 60.5643 723.615 62.5825C722.462 70.7208 733.507 77.9178 737.263 84.555C751.018 106.888 728.221 132.36 705.136 124.688C659.076 109.383 687.972 40.6458 719.526 24.9946C739.556 15.0562 752.518 14.6732 772.116 19.7913C787.667 24.7741 806.105 36.1596 821.501 35.8786C831.845 35.6899 840.307 24.7345 846.575 17.4426C853.693 21.7122 860.832 25.9415 867.999 30.1306C830.479 80.9041 800.544 125.298 782.255 188.274C773.977 216.781 764.291 288.949 822.562 262.249C842.549 253.089 868.813 213.105 877.31 193.853C883.175 180.564 889.019 153.85 893.286 137.84L922.082 29.6566L975.188 29.7503L947.772 131.823C939.26 163.419 925.598 203.366 930.339 235.13C939.133 294.127 991.213 264.172 1012.58 232.168C1037.85 194.326 1060.31 149.583 1059.86 103.388C1059.74 91.483 1045.55 86.5237 1037.81 81.1235C1012.43 57.1341 1028 20.0594 1060.25 15.7699Z" fill="#F1F1F0"/>
<path d="M238.897 263.833C263.133 229.131 321.378 144.23 316.968 102.276C315.651 89.745 306.799 86.334 298.055 79.2333C291.492 73.9039 288.362 67.121 287.549 58.7913C286.519 48.2324 288.815 37.4945 295.71 29.2215C302.342 21.2642 311.082 16.7743 321.38 15.8458C332.331 14.8584 342.905 17.8221 351.34 24.9831C361.03 33.2101 365.095 45.7381 366.104 58.076C372.234 133.125 268.972 270.837 221.241 326.944L219.96 328.459C185.889 368.634 131.961 427.643 76.6291 434.555C54.0288 437.378 28.3535 427.448 26.3728 401.283C25.6752 391.866 28.746 382.557 34.9097 375.406C53.5134 353.773 76.7664 363.237 91.7424 381.32C94.8123 385.027 101.632 387.011 106.427 386.309C138.797 381.573 170.485 345.478 190.398 321.973C190.151 319.756 190.019 317.52 189.866 315.298C185.497 251.876 180.784 188.464 169.161 125.867C165.915 108.385 161.916 90.251 155.751 73.533C152.543 64.8342 144.842 57.1908 135.43 64.1427C121.683 74.8451 113.755 95.9435 107.87 111.463C99.332 109.169 91.9936 107.219 83.6321 104.237C93.9265 68.4643 119.401 19.6996 161.101 15.8378C208.299 12.6866 216.288 76.7006 222.249 110.943C230.901 161.521 236.461 212.579 238.897 263.833Z" fill="#F1F1F0"/>
</svg>
