<svg width="1449" height="443" viewBox="0 0 1449 443" fill="none" xmlns="http://www.w3.org/2000/svg">
<g clip-path="url(#clip0_19_22)">
<path d="M0 0H1449V443H0V0Z" fill="#F2F2F1"/>
<path d="M1215.26 15.8483C1226.97 14.8669 1240.32 18.8701 1247.13 28.8653C1262.61 51.5803 1245.45 91.2814 1238.8 116.002C1251.19 97.0496 1260.7 80.1519 1275.84 62.5416C1297.24 37.1265 1325.35 14.6585 1360.36 15.8474C1403.78 17.3212 1423.18 55.0019 1426.02 93.6768C1433.42 194.227 1346.28 330.674 1232.7 308.024C1217.51 304.994 1204.86 297.743 1193.23 287.816L1170.96 373.511C1165.77 393.784 1167.34 404.664 1191.65 406.138C1200.14 406.654 1208.81 406.648 1217.32 406.838C1214.95 414.539 1212.94 422.597 1210.88 430.408L1052.63 430.556C1054.9 422.67 1057.11 414.768 1059.26 406.85C1069.32 406.922 1079.81 406.842 1089.71 404.896C1097.09 403.444 1103.74 400.711 1108.03 394.26C1115.58 382.89 1126.15 338.491 1130.68 322.383L1158.8 222.489L1183.59 135.947C1188.7 118.303 1193.86 100.687 1198.68 82.9224C1200.45 77.4125 1204.78 58.6545 1193.81 60.2894C1175.38 63.0335 1158.11 96.8054 1150.12 110.835C1142.21 108.108 1134.04 105.425 1126.36 102.153C1143.59 66.6596 1171.79 20.1291 1215.26 15.8483Z" fill="#3A9C79"/>
<path d="M1326.49 60.3429C1329.75 59.9966 1334.39 59.7081 1337.53 60.0754C1367.9 63.6249 1366.52 112.441 1363.73 134.13C1357.5 182.643 1337.63 235.172 1298.7 266.77C1283.96 278.738 1266.76 283.882 1247.98 281.568C1241.46 280.791 1235.1 278.892 1229.44 275.521C1220.05 270.015 1213.29 260.963 1210.67 250.409C1203.48 221.377 1236.15 161.077 1251.6 135.672C1267.56 109.43 1294.9 68.0454 1326.49 60.3429Z" fill="#F2F2F1"/>
<path d="M619.104 17.2503C633.749 16.8792 648.387 16.2884 663.014 15.4781L619.072 161.936L602.756 216.785C600.578 224.215 580.728 276.182 605.536 266.266C620.095 260.446 635.546 235.646 641.918 221.373C649.603 223.755 659.131 227.56 666.826 230.385C664.417 235.876 661.713 241.232 658.725 246.43C641.411 276.832 601.493 327.186 558.686 305.516C550.375 301.309 545.424 292.446 543.053 283.574C537.767 260.143 550.506 228.689 556.433 205.057C551.427 211.6 546.848 220.221 542.164 227.399C519.108 262.796 487.085 308.013 440.709 310.626C396.87 312.87 375.338 273.411 374.245 235.072C371.505 138.951 443.799 20.0633 547.991 15.8847C572.571 15.9589 593.728 21.161 612.016 38.5667C614.438 31.4812 616.801 24.3754 619.104 17.2503Z" fill="#3A9C79"/>
<path d="M537.516 43.3776C555.105 42.6487 571.919 44.9651 581.401 61.4443C588.134 73.146 586.619 93.8912 582.154 106.179C565.013 153.347 522.843 234.637 478.941 258.52C436.673 277.152 430.387 230.556 433.391 200.743C439.089 144.214 472.867 53.0418 537.516 43.3776Z" fill="#F2F2F1"/>
<path d="M1060.25 15.7699C1060.46 15.7524 1060.66 15.7376 1060.88 15.7256C1089.57 14.0383 1105.13 36.247 1105.19 63.0287C1105.35 135.291 1065.48 212.034 1019.85 266.198C1001.14 288.399 971.984 309.377 942.381 310.612C895.345 312.251 878.91 277.702 876.985 237.091C857.557 267.772 827.975 305.254 789.833 309.929C720.871 318.383 712.098 249.069 728.116 199.839C745.373 146.821 777.027 112.233 809.177 69.7647C768.883 79.9771 751.556 55.1936 728.668 59.3331C726.206 59.7777 724.989 60.5643 723.616 62.5825C722.463 70.7209 733.508 77.9178 737.264 84.555C751.019 106.888 728.222 132.36 705.137 124.688C659.077 109.383 687.973 40.6458 719.527 24.9946C739.557 15.0562 752.519 14.6732 772.117 19.7913C787.668 24.7741 806.106 36.1596 821.502 35.8786C831.846 35.6899 840.308 24.7345 846.576 17.4426C853.694 21.7122 860.833 25.9416 868 30.1306C830.48 80.9041 800.545 125.298 782.256 188.274C773.978 216.781 764.292 288.949 822.563 262.249C842.55 253.089 868.813 213.105 877.311 193.853C883.176 180.564 889.02 153.851 893.287 137.84L922.083 29.6566L975.189 29.7503L947.773 131.823C939.261 163.419 925.599 203.366 930.339 235.13C939.134 294.127 991.214 264.172 1012.58 232.168C1037.85 194.326 1060.31 149.583 1059.86 103.388C1059.74 91.4831 1045.55 86.5237 1037.81 81.1235C1012.43 57.1341 1028.01 20.0594 1060.25 15.7699Z" fill="#3A9C79"/>
<path d="M238.897 263.833C263.133 229.131 321.378 144.23 316.968 102.276C315.651 89.745 306.799 86.334 298.055 79.2333C291.492 73.9038 288.362 67.121 287.549 58.7913C286.519 48.2324 288.815 37.4945 295.71 29.2215C302.342 21.2642 311.082 16.7742 321.38 15.8458C332.331 14.8584 342.905 17.8221 351.34 24.9831C361.03 33.21 365.095 45.738 366.104 58.076C372.234 133.125 268.972 270.837 221.241 326.944L219.96 328.459C185.889 368.634 131.961 427.643 76.6291 434.555C54.0288 437.378 28.3535 427.448 26.3728 401.283C25.6752 391.866 28.746 382.557 34.9097 375.406C53.5134 353.773 76.7663 363.237 91.7424 381.32C94.8123 385.027 101.632 387.011 106.427 386.309C138.797 381.573 170.485 345.478 190.398 321.973C190.151 319.756 190.019 317.52 189.866 315.298C185.497 251.876 180.784 188.464 169.161 125.867C165.915 108.385 161.916 90.251 155.751 73.533C152.543 64.8342 144.842 57.1908 135.43 64.1426C121.683 74.845 113.755 95.9434 107.87 111.463C99.332 109.169 91.9936 107.219 83.6321 104.237C93.9265 68.4643 119.401 19.6995 161.101 15.8378C208.299 12.6865 216.288 76.7005 222.249 110.943C230.901 161.521 236.461 212.579 238.897 263.833Z" fill="#3A9C79"/>
</g>
<defs>
<clipPath id="clip0_19_22">
<rect width="1449" height="443" fill="white"/>
</clipPath>
</defs>
</svg>
